<svg width="96" height="96" viewBox="0 0 96 96" fill="none" xmlns="http://www.w3.org/2000/svg">
<path d="M62.8182 68.1706H9.80001L3 14.3357H69.6182L62.8182 68.1706Z" fill="#DBDBDB"/>
<path d="M43.5818 14.3357H69.6182L62.8182 68.1706H9.80001L3 14.3357H24.2364" stroke="#35363A" stroke-width="5" stroke-miterlimit="10" stroke-linecap="round" stroke-linejoin="round"/>
<path d="M32.9272 14.3357H36.3091" stroke="#35363A" stroke-width="5" stroke-miterlimit="10" stroke-linecap="round" stroke-linejoin="round"/>
<path d="M69.6181 78.5588H10.2363C9.03626 78.5588 8.05444 77.2481 8.05444 75.6462C8.05444 74.0443 9.03626 72.7336 10.2363 72.7336H67.909L79.9454 5.16073C80.1636 3.85005 81.0363 2.92773 82.0545 2.92773H90.8181C92.0181 2.92773 92.9999 4.23841 92.9999 5.84036C92.9999 7.4423 92.0181 8.75298 90.8181 8.75298H83.7636L71.7272 76.3744C71.509 77.6365 70.6363 78.5588 69.6181 78.5588Z" fill="#DBDBDB"/>
<path d="M69.6181 78.5588H10.2363C9.03626 78.5588 8.05444 77.2481 8.05444 75.6462C8.05444 74.0443 9.03626 72.7336 10.2363 72.7336H67.909L79.9454 5.16073C80.1636 3.85005 81.0363 2.92773 82.0545 2.92773H90.8181C92.0181 2.92773 92.9999 4.23841 92.9999 5.84036C92.9999 7.4423 92.0181 8.75298 90.8181 8.75298H83.7636L71.7272 76.3744C71.509 77.6365 70.6363 78.5588 69.6181 78.5588Z" stroke="#35363A" stroke-width="5" stroke-miterlimit="10" stroke-linecap="round" stroke-linejoin="round"/>
<path d="M24.2364 92.9277C26.7267 92.9277 28.7455 90.2327 28.7455 86.9083C28.7455 83.5839 26.7267 80.8889 24.2364 80.8889C21.7461 80.8889 19.7273 83.5839 19.7273 86.9083C19.7273 90.2327 21.7461 92.9277 24.2364 92.9277Z" fill="#DBDBDB"/>
<path d="M24.2364 92.9277C26.7267 92.9277 28.7455 90.2327 28.7455 86.9083C28.7455 83.5839 26.7267 80.8889 24.2364 80.8889C21.7461 80.8889 19.7273 83.5839 19.7273 86.9083C19.7273 90.2327 21.7461 92.9277 24.2364 92.9277Z" stroke="#35363A" stroke-width="5" stroke-miterlimit="10" stroke-linecap="round" stroke-linejoin="round"/>
<path d="M50.8546 92.9277C53.3449 92.9277 55.3637 90.2327 55.3637 86.9083C55.3637 83.5839 53.3449 80.8889 50.8546 80.8889C48.3643 80.8889 46.3455 83.5839 46.3455 86.9083C46.3455 90.2327 48.3643 92.9277 50.8546 92.9277Z" fill="#DBDBDB"/>
<path d="M50.8546 92.9277C53.3449 92.9277 55.3637 90.2327 55.3637 86.9083C55.3637 83.5839 53.3449 80.8889 50.8546 80.8889C48.3643 80.8889 46.3455 83.5839 46.3455 86.9083C46.3455 90.2327 48.3643 92.9277 50.8546 92.9277Z" stroke="#35363A" stroke-width="5" stroke-miterlimit="10" stroke-linecap="round" stroke-linejoin="round"/>
<path d="M36.3091 14.3357V68.1706" stroke="#35363A" stroke-width="5" stroke-miterlimit="10" stroke-linecap="round" stroke-linejoin="round"/>
<path d="M18.2363 14.3357L22.0545 68.1706" stroke="#35363A" stroke-width="5" stroke-miterlimit="10" stroke-linecap="round" stroke-linejoin="round"/>
<path d="M54.3819 14.3357L50.5637 68.1706" stroke="#35363A" stroke-width="5" stroke-miterlimit="10" stroke-linecap="round" stroke-linejoin="round"/>
<path d="M5.36365 33.1218H66.9273" stroke="#35363A" stroke-width="5" stroke-miterlimit="10" stroke-linecap="round" stroke-linejoin="round"/>
<path d="M7.69098 51.52H64.9274" stroke="#35363A" stroke-width="5" stroke-miterlimit="10" stroke-linecap="round" stroke-linejoin="round"/>
</svg>
