<svg width="52" height="44" viewBox="0 0 52 44" fill="none" xmlns="http://www.w3.org/2000/svg">
<circle cx="23.791" cy="10.0615" r="6.56101" stroke="white" stroke-width="3"/>
<path d="M29.4546 15.0654L34.939 20.5493" stroke="white" stroke-width="3" stroke-linecap="round" stroke-linejoin="round"/>
<path d="M7.686 39.412C7.406 39.6173 7.014 39.79 6.51 39.93C6.01533 40.0607 5.37133 40.126 4.578 40.126C3.794 40.126 3.04733 40.0607 2.338 39.93C1.62867 39.7993 1.12 39.6547 0.812 39.496C0.504 39.3373 0.35 39.1833 0.35 39.034C0.35 38.5113 0.424667 37.97 0.574 37.41C0.723333 36.8407 0.900667 36.556 1.106 36.556C1.14333 36.556 1.53067 36.682 2.268 36.934C3.00533 37.186 3.56067 37.312 3.934 37.312C4.30733 37.312 4.55 37.2747 4.662 37.2C4.774 37.116 4.83 36.9993 4.83 36.85C4.83 36.7007 4.72733 36.57 4.522 36.458C4.31667 36.3367 4.06 36.234 3.752 36.15C3.444 36.0567 3.108 35.926 2.744 35.758C2.38933 35.59 2.058 35.4033 1.75 35.198C1.442 34.9927 1.18533 34.7033 0.98 34.33C0.774667 33.9473 0.672 33.5133 0.672 33.028C0.672 30.956 1.90867 29.92 4.382 29.92C5.306 29.92 6.104 29.9807 6.776 30.102C7.448 30.214 7.91933 30.3447 8.19 30.494C8.47 30.634 8.61 30.774 8.61 30.914C8.61 31.3993 8.49333 31.922 8.26 32.482C8.036 33.042 7.81667 33.322 7.602 33.322C7.56467 33.322 7.44333 33.28 7.238 33.196C6.622 32.9253 6.10867 32.79 5.698 32.79C5.29667 32.79 5.02133 32.8273 4.872 32.902C4.732 32.9767 4.662 33.0933 4.662 33.252C4.662 33.4013 4.76467 33.5273 4.97 33.63C5.17533 33.7233 5.42733 33.812 5.726 33.896C6.034 33.9707 6.36533 34.092 6.72 34.26C7.084 34.4187 7.42 34.61 7.728 34.834C8.036 35.0487 8.29267 35.3567 8.498 35.758C8.70333 36.1593 8.806 36.626 8.806 37.158C8.806 37.718 8.66133 38.2267 8.372 38.684C8.19467 38.964 7.966 39.2067 7.686 39.412ZM13.1922 36.836C13.1922 37.4427 13.4815 37.746 14.0602 37.746C14.3962 37.746 14.8348 37.634 15.3762 37.41C15.9175 37.1767 16.2022 37.06 16.2302 37.06C16.4075 37.06 16.6408 37.326 16.9302 37.858C17.2195 38.39 17.3642 38.782 17.3642 39.034C17.3642 39.398 16.9908 39.6733 16.2442 39.86C15.4975 40.0467 14.7648 40.14 14.0462 40.14C13.3368 40.14 12.7395 40.084 12.2542 39.972C11.7782 39.86 11.3862 39.72 11.0782 39.552C10.7795 39.3747 10.5135 39.16 10.2802 38.908C10.0562 38.656 9.88816 38.418 9.77616 38.194C9.66416 37.9607 9.57549 37.704 9.51016 37.424C9.41682 37.0133 9.37016 36.5887 9.37016 36.15C9.37016 34.4513 9.81349 33.28 10.7002 32.636C11.1388 32.3093 11.6288 32.0807 12.1702 31.95C12.7115 31.8193 13.3508 31.754 14.0882 31.754C16.4495 31.754 17.6302 32.5753 17.6302 34.218C17.6302 35.9633 16.3048 36.836 13.6542 36.836H13.1922ZM13.1642 34.792V35.716C13.4348 35.716 13.6542 35.6087 13.8222 35.394C13.9995 35.1793 14.0882 34.918 14.0882 34.61C14.0882 34.05 13.9435 33.77 13.6542 33.77C13.3275 33.77 13.1642 34.1107 13.1642 34.792ZM20.9852 40.126C20.1359 40.126 19.4686 39.9253 18.9832 39.524C18.7872 39.356 18.6146 39.1087 18.4652 38.782C18.3252 38.4553 18.2552 38.0727 18.2552 37.634C18.2552 37.1953 18.3579 36.8127 18.5632 36.486C18.7779 36.1593 19.0346 35.9073 19.3332 35.73C19.6319 35.5527 19.9819 35.408 20.3832 35.296C20.9899 35.1373 21.6572 35.058 22.3852 35.058H22.8472C22.8472 34.6753 22.7166 34.4047 22.4552 34.246C22.3432 34.1807 22.1706 34.148 21.9372 34.148C21.7132 34.148 21.4379 34.2087 21.1112 34.33C20.7939 34.4513 20.5279 34.5773 20.3132 34.708C20.0986 34.8293 19.9539 34.89 19.8792 34.89C19.7112 34.89 19.4826 34.6707 19.1932 34.232C18.9039 33.784 18.7592 33.378 18.7592 33.014C18.7592 32.8927 18.9319 32.734 19.2772 32.538C19.6226 32.342 20.1079 32.1647 20.7332 32.006C21.3679 31.838 21.9839 31.754 22.5812 31.754C23.1786 31.754 23.6919 31.8053 24.1212 31.908C24.5599 32.0013 24.9146 32.118 25.1852 32.258C25.4652 32.398 25.6986 32.5847 25.8852 32.818C26.0812 33.0513 26.2259 33.2613 26.3192 33.448C26.4219 33.6347 26.4966 33.8773 26.5432 34.176C26.6086 34.5213 26.6412 34.946 26.6412 35.45V39.664C26.6412 39.7667 26.3892 39.8507 25.8852 39.916C25.3906 39.972 24.8959 40 24.4012 40C23.9159 40 23.5986 39.986 23.4492 39.958C23.3092 39.93 23.2252 39.8973 23.1972 39.86C23.1692 39.8227 23.1459 39.7573 23.1272 39.664L23.0152 38.866H22.9032C22.6699 39.706 22.0306 40.126 20.9852 40.126ZM22.8612 37.802V36.164C22.6186 36.164 22.4226 36.2667 22.2732 36.472C22.1239 36.6773 22.0492 36.9107 22.0492 37.172C22.0492 37.788 22.1892 38.096 22.4692 38.096C22.5906 38.096 22.6839 38.068 22.7492 38.012C22.8239 37.9467 22.8612 37.8767 22.8612 37.802ZM31.2621 35.576V39.664C31.2621 39.7667 30.9961 39.8507 30.4641 39.916C29.9414 39.972 29.3954 40 28.8261 40C28.2661 40 27.9021 39.9767 27.7341 39.93C27.5661 39.874 27.4821 39.7853 27.4821 39.664V32.762C27.4821 32.5847 27.7388 32.3933 28.2521 32.188C28.7748 31.9827 29.3394 31.88 29.9461 31.88C30.5621 31.88 30.9074 32.048 30.9821 32.384L31.1221 33.028H31.2201C31.3508 32.6733 31.6634 32.3747 32.1581 32.132C32.6528 31.88 33.1474 31.754 33.6421 31.754C34.1368 31.754 34.4821 31.8333 34.6781 31.992C34.8834 32.1507 34.9861 32.356 34.9861 32.608C34.9861 32.8507 34.9674 33.1633 34.9301 33.546C34.8928 33.9287 34.7994 34.344 34.6501 34.792C34.5101 35.24 34.3234 35.464 34.0901 35.464C33.9968 35.464 33.7028 35.394 33.2081 35.254C32.7134 35.114 32.3028 35.044 31.9761 35.044C31.6588 35.044 31.4581 35.0907 31.3741 35.184C31.2994 35.2773 31.2621 35.408 31.2621 35.576ZM37.3512 39.762C37.1272 39.6593 36.8846 39.5053 36.6232 39.3C36.3712 39.0947 36.1612 38.852 35.9932 38.572C35.6012 37.9 35.4052 37.0227 35.4052 35.94C35.4052 35.268 35.5126 34.6707 35.7272 34.148C35.9419 33.616 36.2032 33.2053 36.5112 32.916C36.8192 32.6267 37.1739 32.3887 37.5752 32.202C38.2192 31.9033 38.8632 31.754 39.5072 31.754C40.5899 31.754 41.3412 31.838 41.7612 32.006C42.1906 32.174 42.4052 32.4587 42.4052 32.86C42.4052 33.2613 42.3306 33.6907 42.1812 34.148C42.0412 34.596 41.8546 34.82 41.6212 34.82C41.5466 34.82 41.3179 34.7407 40.9352 34.582C40.5619 34.4233 40.2352 34.344 39.9552 34.344C39.6846 34.344 39.4746 34.456 39.3252 34.68C39.1852 34.8947 39.1152 35.3193 39.1152 35.954C39.1152 36.5793 39.1806 37.0087 39.3112 37.242C39.4419 37.466 39.6426 37.578 39.9132 37.578C40.1932 37.578 40.5386 37.4847 40.9492 37.298C41.3599 37.1113 41.5886 37.018 41.6352 37.018C41.8126 37.018 41.9806 37.228 42.1392 37.648C42.3072 38.068 42.3912 38.4413 42.3912 38.768C42.3912 39.272 42.1299 39.6267 41.6072 39.832C41.0846 40.028 40.3752 40.126 39.4792 40.126C38.5926 40.126 37.8832 40.0047 37.3512 39.762ZM47.6525 39.664V35.772C47.6525 35.072 47.6245 34.5633 47.5685 34.246C47.5125 33.9287 47.3772 33.77 47.1625 33.77C46.9758 33.77 46.8825 33.896 46.8825 34.148V39.664C46.8825 39.7667 46.6118 39.8507 46.0705 39.916C45.5292 39.972 44.9738 40 44.4045 40C43.8352 40 43.4758 39.9767 43.3265 39.93C43.1772 39.874 43.1025 39.7853 43.1025 39.664V29.962C43.1025 29.766 43.3732 29.57 43.9145 29.374C44.4558 29.178 45.0252 29.08 45.6225 29.08C46.2478 29.08 46.6445 29.1967 46.8125 29.43C46.8685 29.5047 46.8965 29.584 46.8965 29.668V31.726L46.7425 32.692H46.8405C46.9712 32.496 47.1765 32.3233 47.4565 32.174C47.9792 31.894 48.5485 31.754 49.1645 31.754C50.0512 31.754 50.6485 32.0387 50.9565 32.608C51.2738 33.168 51.4325 34.0827 51.4325 35.352V39.664C51.4325 39.7667 51.1572 39.8507 50.6065 39.916C50.0652 39.972 49.5098 40 48.9405 40C48.3805 40 48.0258 39.9767 47.8765 39.93C47.7272 39.874 47.6525 39.7853 47.6525 39.664Z" fill="white"/>
</svg>
