<svg width="100" height="100" viewBox="0 0 100 100" fill="none" xmlns="http://www.w3.org/2000/svg">
<path fill-rule="evenodd" clip-rule="evenodd" d="M50 16.6666C31.5905 16.6666 16.6666 31.5904 16.6666 49.9999C16.6666 58.7462 20.0336 66.7077 25.55 72.6572C25.7582 71.9681 26.0352 71.2913 26.3966 70.6452C27.6215 68.455 29.1668 66.4298 31.0004 64.639C32.8404 62.8418 34.9164 61.3335 37.1556 60.1418C33.7453 56.8774 31.6132 52.3151 31.6132 47.2221C31.6132 37.1583 39.9383 29.1666 50 29.1666C60.0616 29.1666 68.3868 37.1583 68.3868 47.2221C68.3868 52.3151 66.2547 56.8774 62.8444 60.1419C65.0835 61.3335 67.1595 62.8418 68.9996 64.639C70.8331 66.4298 72.3784 68.455 73.6034 70.6452C73.9647 71.2913 74.2417 71.9681 74.45 72.6572C79.9664 66.7077 83.3333 58.7462 83.3333 49.9999C83.3333 31.5904 68.4095 16.6666 50 16.6666ZM66.4213 79.0152C66.5831 78.183 66.6642 77.4017 66.6666 76.7095C66.6706 75.5658 66.4611 74.9468 66.3304 74.7131C65.4947 73.219 64.4375 71.8318 63.1769 70.6006C59.6986 67.2033 54.9605 65.2777 50 65.2777C45.0395 65.2777 40.3014 67.2033 36.8231 70.6006C35.5625 71.8318 34.5052 73.219 33.6696 74.7131C33.5389 74.9467 33.3294 75.5658 33.3334 76.7095C33.3358 77.4017 33.4169 78.183 33.5786 79.0152C38.4229 81.7636 44.0229 83.3333 50 83.3333C55.9771 83.3333 61.577 81.7636 66.4213 79.0152ZM50 56.9444C55.6455 56.9444 60.0535 52.4995 60.0535 47.2221C60.0535 41.9448 55.6455 37.4999 50 37.4999C44.3545 37.4999 39.9465 41.9448 39.9465 47.2221C39.9465 52.4995 44.3545 56.9444 50 56.9444ZM8.33331 49.9999C8.33331 26.9881 26.9881 8.33325 50 8.33325C73.0118 8.33325 91.6667 26.9881 91.6667 49.9999C91.6667 64.8218 83.9244 77.8326 72.2833 85.2131C65.8363 89.3005 58.1881 91.6666 50 91.6666C41.8119 91.6666 34.1637 89.3005 27.7167 85.2131C16.0755 77.8326 8.33331 64.8218 8.33331 49.9999Z" fill="#35363A"/>
</svg>
